<?xml version="1.0" encoding="UTF-8" standalone="no"?>
<svg width="1440px" height="240px" viewBox="0 0 1440 240" version="1.1" xmlns="http://www.w3.org/2000/svg" xmlns:xlink="http://www.w3.org/1999/xlink">
    <!-- Generator: Sketch 39.1 (31720) - http://www.bohemiancoding.com/sketch -->
    <title>hckn-banner</title>
    <desc>Created with Sketch.</desc>
    <defs>
        <path d="M301.000148,90.7142329 C301.000148,66.218668 273.252347,46.4284658 239.000074,46.4284658 C204.747801,46.4284658 177,66.2878645 177,90.7142329 C177,104.761125 186.133939,117.285693 200.388421,125.381685 C197.136185,136.937502 192.154036,141.089293 187.794656,146.002245 C186.756708,147.247782 185.580367,148.28573 185.92635,150.015643 C185.92635,150.015643 185.92635,150.015643 185.92635,150.084839 C186.272332,151.745556 187.725459,152.8527 189.247782,152.714307 C191.946446,152.368324 194.64511,151.883949 197.136185,151.191984 C209.107181,148.147337 219.901837,142.473223 228.96658,134.446428 C232.218816,134.79241 235.609445,135 239.000074,135 C273.252347,135 301.000148,115.209798 301.000148,90.7142329 L301.000148,90.7142329 Z" id="path-1"></path>
        <filter x="-50%" y="-50%" width="200%" height="200%" filterUnits="objectBoundingBox" id="filter-2">
            <feOffset dx="4" dy="4" in="SourceAlpha" result="shadowOffsetOuter1"></feOffset>
            <feGaussianBlur stdDeviation="12" in="shadowOffsetOuter1" result="shadowBlurOuter1"></feGaussianBlur>
            <feColorMatrix values="0 0 0 0 0.48627451   0 0 0 0 0.596078431   0 0 0 0 0.682352941  0 0 0 0.6 0" type="matrix" in="shadowBlurOuter1"></feColorMatrix>
        </filter>
        <path d="M701.714344,55.2856193 C723.303655,55.2856193 741.571534,67.4642052 741.571534,81.8570795 C741.571534,96.2499538 723.303655,108.42854 701.714344,108.42854 C698.116125,108.42854 694.587103,108.082557 691.127278,107.459789 L687.459863,106.767823 L684.415216,108.912915 C683.031286,109.881666 681.578159,110.781221 680.125032,111.611579 L682.54691,105.799072 L675.834849,101.924068 C666.977695,96.8035259 661.857153,89.4686957 661.857153,81.8570795 C661.857153,67.4642052 680.125032,55.2856193 701.714344,55.2856193 L701.714344,55.2856193 Z M701.714344,46.4284658 C674.796901,46.4284658 653,62.2744669 653,81.8570795 C653,93.0669143 660.196437,103.100408 671.406272,109.60488 C669.053591,115.348191 666.008944,118.046855 663.31028,121.091501 C662.549119,121.991056 661.649564,122.821414 661.92635,124.136148 C662.133939,125.312488 663.102691,126.142847 664.140638,126.142847 L664.348228,126.142847 C666.424123,125.866061 668.430822,125.520078 670.299128,125.035702 C677.287975,123.236593 683.792447,120.261143 689.535758,116.178549 C693.410762,116.870514 697.493357,117.285693 701.714344,117.285693 C728.631787,117.285693 750.428688,101.439692 750.428688,81.8570795 C750.428688,62.2744669 728.631787,46.4284658 701.714344,46.4284658 L701.714344,46.4284658 Z M758.593876,127.319187 C769.803711,120.814715 777.000148,110.850418 777.000148,99.5713863 C777.000148,88.015569 769.388532,77.7744854 757.694321,71.3392098 C758.732269,74.7298389 759.285841,78.2588609 759.285841,81.8570795 C759.285841,94.243255 752.919762,105.660679 741.363945,114.102654 C730.638485,121.852663 716.591594,126.142847 701.714344,126.142847 C699.707645,126.142847 697.63175,126.004454 695.625051,125.866061 C704.274615,131.540174 715.761236,135 728.285804,135 C732.506791,135 736.589385,134.584821 740.46439,133.892856 C746.2077,137.97545 752.712172,140.9509 759.70102,142.750009 C761.569326,143.234385 763.576025,143.580367 765.65192,143.857153 C766.759064,143.995546 767.797012,143.095992 768.073798,141.850455 C768.350584,140.535721 767.451029,139.705363 766.689868,138.805808 C763.991204,135.761162 760.946557,133.062498 758.593876,127.319187 L758.593876,127.319187 Z" id="path-3"></path>
        <filter x="-50%" y="-50%" width="200%" height="200%" filterUnits="objectBoundingBox" id="filter-4">
            <feOffset dx="4" dy="4" in="SourceAlpha" result="shadowOffsetOuter1"></feOffset>
            <feGaussianBlur stdDeviation="12" in="shadowOffsetOuter1" result="shadowBlurOuter1"></feGaussianBlur>
            <feColorMatrix values="0 0 0 0 0.48627451   0 0 0 0 0.596078431   0 0 0 0 0.682352941  0 0 0 0.6 0" type="matrix" in="shadowBlurOuter1"></feColorMatrix>
        </filter>
        <path d="M1155.07145,121.71427 C1155.07145,124.136148 1153.06475,126.142847 1150.64287,126.142847 C1148.221,126.142847 1146.2143,124.136148 1146.2143,121.71427 C1146.2143,119.292392 1148.221,117.285693 1150.64287,117.285693 C1153.06475,117.285693 1155.07145,119.292392 1155.07145,121.71427 L1155.07145,121.71427 Z M1234.78583,81.8570795 C1234.78583,84.4173504 1232.84833,90.6450364 1229.59609,90.7142329 C1231.04922,92.3749492 1232.01797,95.6271852 1232.01797,97.8414736 C1232.01797,101.09371 1230.70324,103.86157 1228.35055,106.075858 C1229.18091,107.528985 1229.59609,109.189701 1229.59609,110.850418 C1229.59609,114.033457 1228.00457,117.977658 1225.09832,119.569178 C1225.30591,120.814715 1225.4443,122.129449 1225.4443,123.444183 C1225.4443,131.886157 1219.97778,135 1212.15857,135 L1203.78579,135 C1195.62061,135 1187.7322,132.578122 1180.12059,129.948655 C1176.38398,128.633921 1170.0179,126.142847 1166.14289,126.142847 L1163.9286,126.142847 L1163.9286,81.8570795 L1166.14289,81.8570795 C1171.60942,81.8570795 1179.8438,70.0244761 1182.95764,66.0110785 C1184.68756,63.8659866 1186.34827,61.7208948 1188.28577,59.714196 C1194.99784,52.6561518 1192.71435,42.0690856 1197.14293,37.5713124 C1206.62285,37.5713124 1208.21437,42.7610508 1208.21437,50.8570426 C1208.21437,59.0222309 1201.57151,64.9039343 1201.57151,72.9999261 L1225.92868,72.9999261 C1230.56484,72.9999261 1234.78583,77.1517168 1234.78583,81.8570795 L1234.78583,81.8570795 Z M1243.64298,81.787883 C1243.64298,72.2387645 1235.4778,64.1427727 1225.92868,64.1427727 L1213.75009,64.1427727 C1215.82599,59.852589 1217.07152,55.7007983 1217.07152,50.8570426 C1217.07152,46.2208763 1216.79474,42.2074787 1214.64965,37.9864915 C1211.25902,31.2744299 1204.33937,28.714159 1197.14293,28.714159 C1194.79025,28.714159 1192.57596,29.6829102 1190.91524,31.2744299 C1183.99559,38.055688 1186.20988,48.9887368 1182.05809,53.4173135 C1179.42862,56.2543704 1177.00674,59.2298204 1174.65406,62.2744669 C1172.57817,64.9731308 1167.8728,71.2008168 1165.17414,72.9999261 L1146.2143,72.9999261 C1141.30134,72.9999261 1137.35714,76.9441272 1137.35714,81.8570795 L1137.35714,126.142847 C1137.35714,131.055799 1141.30134,135 1146.2143,135 L1166.14289,135 C1168.08039,135 1173.68531,137.075895 1175.69201,137.76786 C1184.82595,140.9509 1193.95989,143.857153 1203.78579,143.857153 L1210.22107,143.857153 L1212.71214,143.857153 C1225.5135,143.857153 1234.43985,136.176341 1234.30145,123.0982 C1237.00012,119.638375 1238.45325,115.209798 1238.45325,110.781221 C1238.45325,109.81247 1238.38405,108.774522 1238.24566,107.805771 C1239.97557,104.761125 1240.87512,101.301299 1240.87512,97.8414736 C1240.87512,96.2499538 1240.66753,94.5892375 1240.25235,93.0669143 C1242.46664,89.7454818 1243.64298,85.8012806 1243.64298,81.787883 L1243.64298,81.787883 Z" id="path-5"></path>
        <filter x="-50%" y="-50%" width="200%" height="200%" filterUnits="objectBoundingBox" id="filter-6">
            <feOffset dx="4" dy="4" in="SourceAlpha" result="shadowOffsetOuter1"></feOffset>
            <feGaussianBlur stdDeviation="12" in="shadowOffsetOuter1" result="shadowBlurOuter1"></feGaussianBlur>
            <feColorMatrix values="0 0 0 0 0.48627451   0 0 0 0 0.596078431   0 0 0 0 0.682352941  0 0 0 0.6 0" type="matrix" in="shadowBlurOuter1"></feColorMatrix>
        </filter>
    </defs>
    <g id="Page-2" stroke="none" stroke-width="1" fill="none" fill-rule="evenodd">
        <g id="Desktop-HD" transform="translate(0.000000, -158.000000)">
            <g id="hckn-banner" transform="translate(0.000000, 158.000000)">
                <rect id="Rectangle-4" fill="#FAF9F5" x="0" y="0" width="1440" height="240"></rect>
                <text id="Anyone-can-ask." font-family="RobotoSlab-Bold, Roboto Slab" font-size="32" font-weight="bold" fill="#7C98AE">
                    <tspan x="114.851562" y="204">Anyone can ask.</tspan>
                </text>
                <text id="Anyone-can-answer." font-family="RobotoSlab-Bold, Roboto Slab" font-size="32" font-weight="bold" fill="#7C98AE">
                    <tspan x="563.21875" y="204">Anyone can answer.</tspan>
                </text>
                <text id="The-best-answers-ris" font-family="RobotoSlab-Bold, Roboto Slab" font-size="32" font-weight="bold" fill="#7C98AE">
                    <tspan x="1020.67969" y="204">The best answers rise.</tspan>
                </text>
                <g id="comment---FontAwesome">
                    <use fill="black" fill-opacity="1" filter="url(#filter-2)" xlink:href="#path-1"></use>
                    <use fill="#7C98AE" fill-rule="evenodd" xlink:href="#path-1"></use>
                </g>
                <g id="comments-o---FontAwesome">
                    <use fill="black" fill-opacity="1" filter="url(#filter-4)" xlink:href="#path-3"></use>
                    <use fill="#7C98AE" fill-rule="evenodd" xlink:href="#path-3"></use>
                </g>
                <rect id="Rectangle-7" fill="#E6E6E6" x="462" y="20" width="2" height="203"></rect>
                <rect id="Rectangle-7-Copy" fill="#E6E6E6" x="952" y="20" width="2" height="203"></rect>
                <g id="thumbs-o-up---FontAwesome">
                    <use fill="black" fill-opacity="1" filter="url(#filter-6)" xlink:href="#path-5"></use>
                    <use fill="#7C98AE" fill-rule="evenodd" xlink:href="#path-5"></use>
                </g>
            </g>
        </g>
    </g>
</svg>